<?xml version="1.0" standalone="no"?>
<!DOCTYPE svg PUBLIC "-//W3C//DTD SVG 20010904//EN"
 "http://www.w3.org/TR/2001/REC-SVG-20010904/DTD/svg10.dtd">
<svg version="1.0" xmlns="http://www.w3.org/2000/svg"
 width="1040.000000pt" height="1040.000000pt" viewBox="0 0 1040.000000 1040.000000"
 preserveAspectRatio="xMidYMid meet">
<metadata>
Created by potrace 1.11, written by Peter Selinger 2001-2013
</metadata>
<g transform="translate(0.000000,1040.000000) scale(0.100000,-0.100000)"
fill="#000000" stroke="none">
<path d="M2408 9815 c-2 -1 -41 -5 -88 -9 -87 -6 -124 -10 -195 -21 -22 -4
-51 -8 -65 -10 -14 -2 -25 -4 -25 -5 0 -1 -11 -3 -25 -5 -14 -2 -38 -7 -55
-10 -16 -4 -34 -8 -40 -9 -33 -7 -153 -39 -170 -46 -11 -5 -31 -12 -45 -16
-56 -15 -191 -71 -295 -123 -92 -45 -308 -179 -361 -223 -22 -19 -33 -29 -94
-78 -30 -25 -72 -62 -93 -82 -21 -21 -43 -38 -48 -38 -5 0 -9 -3 -9 -7 0 -5
-23 -33 -51 -63 -87 -95 -94 -103 -149 -175 -30 -38 -57 -72 -60 -75 -9 -8
-130 -188 -130 -193 0 -2 -22 -42 -50 -88 -27 -46 -50 -90 -50 -96 0 -7 -4
-13 -10 -13 -5 0 -10 -4 -10 -10 0 -5 -14 -40 -31 -77 -53 -114 -66 -146 -85
-198 -9 -27 -22 -56 -27 -62 -5 -7 -7 -13 -3 -13 3 0 0 -17 -8 -37 -24 -65
-58 -183 -70 -243 -3 -14 -7 -36 -11 -50 -3 -14 -7 -38 -10 -55 -2 -16 -6 -39
-9 -51 -6 -27 -16 -108 -26 -204 -4 -41 -5 -172 -3 -290 4 -218 6 -247 17
-310 3 -19 8 -51 11 -70 9 -58 23 -133 30 -165 19 -89 99 -345 122 -388 8 -16
16 -36 18 -46 11 -61 184 -379 273 -506 45 -64 114 -157 127 -171 6 -6 30 -35
55 -64 25 -29 70 -78 100 -110 30 -31 107 -112 170 -179 154 -165 172 -183
270 -291 47 -51 99 -107 115 -125 42 -44 193 -209 251 -274 27 -29 65 -71 84
-91 19 -21 67 -73 105 -116 39 -42 85 -92 103 -110 17 -19 32 -35 32 -38 0 -2
17 -22 38 -43 42 -45 187 -202 258 -282 27 -30 72 -79 100 -108 28 -29 49 -53
47 -53 -3 0 10 -15 29 -33 38 -39 178 -191 235 -256 21 -24 54 -61 73 -81 19
-21 67 -72 105 -115 39 -43 86 -95 105 -115 19 -21 67 -73 105 -116 39 -43 81
-90 95 -105 14 -15 54 -59 89 -99 36 -39 78 -86 95 -104 17 -17 58 -63 91
-100 33 -38 87 -98 121 -132 33 -35 59 -64 57 -64 -3 0 34 -42 82 -94 34 -36
254 -281 286 -319 13 -15 40 -45 59 -65 19 -21 62 -69 95 -106 33 -37 77 -86
98 -108 20 -22 37 -44 37 -49 0 -6 5 -7 10 -4 6 3 10 1 10 -5 0 -6 20 -32 44
-58 68 -73 107 -116 156 -173 25 -28 59 -66 75 -84 17 -17 55 -60 85 -95 30
-35 75 -85 100 -111 25 -26 70 -76 100 -110 30 -34 81 -90 113 -123 32 -34 62
-66 65 -73 10 -17 124 -83 133 -77 5 3 9 1 9 -4 0 -5 6 -9 13 -10 196 -23 281
13 434 184 16 17 51 56 78 86 117 127 222 243 255 278 19 21 69 75 110 120 41
46 94 103 118 127 23 24 42 45 42 47 0 2 19 24 43 48 76 81 253 272 303 327
27 30 74 80 104 111 30 32 89 96 132 142 42 45 96 104 120 129 23 25 78 85
122 132 43 48 95 104 115 125 34 36 215 231 271 292 60 65 228 246 255 275 30
31 86 92 260 280 50 53 106 114 125 135 64 69 225 242 258 277 17 19 32 39 32
44 0 6 5 7 10 4 6 -3 10 -2 10 2 0 5 23 33 51 63 100 108 234 253 259 280 14
15 61 66 105 115 44 48 100 108 125 134 25 26 79 85 122 131 42 47 94 103 115
126 21 22 82 88 136 146 127 137 211 225 355 372 64 66 141 149 170 185 29 36
61 75 71 86 60 68 250 363 265 413 4 12 12 22 17 22 5 0 8 3 7 8 0 4 18 46 40
95 23 48 42 92 42 97 0 6 5 10 11 10 5 0 8 3 6 8 -3 4 0 18 6 32 37 90 98 270
111 330 3 14 12 55 20 91 21 94 26 119 31 159 3 19 7 44 9 55 27 123 28 595 2
740 -3 17 -8 44 -10 60 -14 89 -28 158 -47 230 -11 44 -22 87 -24 95 -4 21
-68 203 -94 270 -25 64 -151 323 -161 330 -4 3 -10 12 -13 20 -4 8 -21 35 -37
60 -16 25 -34 54 -39 65 -5 12 -16 27 -25 34 -9 7 -16 20 -16 27 0 8 -4 14 -8
14 -4 0 -16 13 -25 30 -10 16 -23 35 -31 42 -7 7 -28 33 -47 58 -71 93 -252
280 -368 380 -35 30 -69 60 -75 65 -6 6 -38 31 -71 55 -33 25 -62 48 -65 51
-3 3 -20 14 -37 24 -18 11 -33 23 -33 27 0 4 -4 8 -9 8 -5 0 -37 18 -70 40
-33 22 -64 40 -70 40 -5 0 -11 3 -13 8 -1 4 -30 21 -63 37 -33 17 -61 33 -63
38 -2 4 -9 7 -16 7 -7 0 -39 13 -72 28 -32 16 -75 34 -94 41 -19 7 -44 17 -55
21 -18 8 -81 29 -110 37 -46 13 -175 45 -195 49 -14 2 -36 7 -50 10 -25 6 -51
10 -125 19 -22 3 -58 8 -80 12 -22 3 -119 7 -215 7 -159 1 -218 -3 -290 -19
-14 -3 -38 -8 -53 -10 -31 -6 -214 -66 -262 -86 -16 -7 -32 -13 -35 -13 -10
-2 -205 -96 -220 -106 -8 -5 -43 -24 -77 -42 -35 -17 -63 -35 -63 -40 0 -4 -5
-8 -11 -8 -10 0 -199 -116 -234 -142 -5 -5 -55 -40 -110 -80 -55 -39 -116 -84
-135 -100 -149 -119 -198 -159 -234 -193 -18 -16 -69 -61 -112 -100 -77 -69
-387 -378 -656 -654 -76 -78 -142 -141 -147 -141 -5 0 -70 60 -144 133 -388
380 -507 494 -512 489 -3 -3 -5 2 -5 11 0 9 -3 17 -7 17 -5 0 -36 27 -70 60
-34 33 -66 60 -72 60 -5 0 -13 9 -16 20 -3 11 -10 20 -15 20 -5 0 -21 12 -37
28 -16 15 -60 54 -98 87 -38 33 -80 70 -93 83 -13 12 -27 22 -32 22 -5 0 -13
6 -17 13 -4 7 -32 30 -60 52 -29 21 -53 43 -53 47 0 4 -6 8 -14 8 -8 0 -16 4
-18 8 -1 4 -55 45 -118 90 -63 45 -120 85 -126 89 -36 27 -186 113 -195 113
-5 0 -9 5 -9 10 0 6 -5 10 -11 10 -6 0 -48 18 -94 40 -46 22 -88 40 -94 40 -6
0 -19 4 -29 9 -48 26 -246 99 -312 116 -8 2 -40 11 -70 19 -116 32 -209 44
-342 44 -75 0 -138 -2 -140 -3z"/>
</g>
</svg>
